<svg width="450" height="81" viewBox="0 0 450 81" fill="none" xmlns="http://www.w3.org/2000/svg">
<mask id="mask0" mask-type="alpha" maskUnits="userSpaceOnUse" x="417" y="51" width="20" height="14">
<path fill-rule="evenodd" clip-rule="evenodd" d="M417.234 61.66L417.849 63.552C419.129 63.851 420.394 64.188 421.646 64.548V64.548L436.397 56.675L433.421 51.58L417.234 61.66Z" fill="white"/>
</mask>
<g mask="url(#mask0)">
<path fill-rule="evenodd" clip-rule="evenodd" d="M417.234 61.66L417.849 63.552C419.129 63.851 420.394 64.188 421.646 64.548V64.548L436.397 56.675L433.421 51.58L417.234 61.66Z" fill="url(#paint0_linear)"/>
</g>
<mask id="mask1" mask-type="alpha" maskUnits="userSpaceOnUse" x="428" y="62" width="15" height="8">
<path fill-rule="evenodd" clip-rule="evenodd" d="M428.013 66.692C430.397 67.611 432.729 68.647 434.989 69.796V69.796L442.598 67.307L439.538 62.056L428.013 66.692Z" fill="white"/>
</mask>
<g mask="url(#mask1)">
<path fill-rule="evenodd" clip-rule="evenodd" d="M428.013 66.692C430.397 67.611 432.729 68.647 434.989 69.796V69.796L442.598 67.307L439.538 62.056L428.013 66.692Z" fill="url(#paint1_linear)"/>
</g>
<mask id="mask2" mask-type="alpha" maskUnits="userSpaceOnUse" x="442" y="73" width="8" height="7">
<path fill-rule="evenodd" clip-rule="evenodd" d="M442.121 73.888C444.761 75.595 447.297 77.464 449.698 79.48V79.48L445.965 73.075L442.121 73.888Z" fill="white"/>
</mask>
<g mask="url(#mask2)">
<path fill-rule="evenodd" clip-rule="evenodd" d="M442.121 73.888C444.761 75.595 447.297 77.464 449.698 79.48V79.48L445.965 73.075L442.121 73.888Z" fill="url(#paint2_linear)"/>
</g>
<mask id="mask3" mask-type="alpha" maskUnits="userSpaceOnUse" x="350" y="73" width="9" height="7">
<path fill-rule="evenodd" clip-rule="evenodd" d="M350.998 79.479C353.374 77.487 355.874 75.644 358.482 73.947V73.947L354.689 73.144L350.998 79.479Z" fill="white"/>
</mask>
<g mask="url(#mask3)">
<path fill-rule="evenodd" clip-rule="evenodd" d="M350.998 79.479C353.374 77.487 355.874 75.644 358.482 73.947V73.947L354.689 73.144L350.998 79.479Z" fill="url(#paint3_linear)"/>
</g>
<mask id="mask4" mask-type="alpha" maskUnits="userSpaceOnUse" x="358" y="62" width="15" height="8">
<path fill-rule="evenodd" clip-rule="evenodd" d="M358.089 67.315L365.705 69.796C367.917 68.68 370.185 67.664 372.509 66.76V66.76L361.105 62.152L358.089 67.315Z" fill="white"/>
</mask>
<g mask="url(#mask4)">
<path fill-rule="evenodd" clip-rule="evenodd" d="M358.089 67.315L365.705 69.796C367.917 68.68 370.185 67.664 372.509 66.76V66.76L361.105 62.152L358.089 67.315Z" fill="url(#paint4_linear)"/>
</g>
<mask id="mask5" mask-type="alpha" maskUnits="userSpaceOnUse" x="392" y="0" width="15" height="35">
<path fill-rule="evenodd" clip-rule="evenodd" d="M392.494 8.347L396.977 19.448L400.289 27.651L403.129 34.691L406.445 28.479L403.541 19.556L400.249 9.427L397.246 0.203L392.494 8.347Z" fill="white"/>
</mask>
<g mask="url(#mask5)">
<path fill-rule="evenodd" clip-rule="evenodd" d="M392.494 8.347L396.977 19.448L400.289 27.651L403.129 34.691L406.445 28.479L403.541 19.556L400.249 9.427L397.246 0.203L392.494 8.347Z" fill="url(#paint5_linear)"/>
</g>
<mask id="mask6" mask-type="alpha" maskUnits="userSpaceOnUse" x="413" y="57" width="5" height="7">
<path fill-rule="evenodd" clip-rule="evenodd" d="M415.88 57.496L413.185 59.608L414.498 62.848C415.625 63.059 416.741 63.296 417.849 63.552V63.552L417.234 61.66L415.881 57.496H415.88Z" fill="white"/>
</mask>
<g mask="url(#mask6)">
<path fill-rule="evenodd" clip-rule="evenodd" d="M415.88 57.496L413.185 59.608L414.498 62.848C415.625 63.059 416.741 63.296 417.849 63.552V63.552L417.234 61.66L415.881 57.496H415.88Z" fill="url(#paint6_linear)"/>
</g>
<mask id="mask7" mask-type="alpha" maskUnits="userSpaceOnUse" x="405" y="35" width="10" height="21">
<path fill-rule="evenodd" clip-rule="evenodd" d="M405.606 40.824L407.689 45.992L409.725 51.02L411.405 55.191L414.289 52.604L412.698 47.703L410.833 41.979L408.793 35.704L405.606 40.824Z" fill="white"/>
</mask>
<g mask="url(#mask7)">
<path fill-rule="evenodd" clip-rule="evenodd" d="M405.606 40.824L407.689 45.992L409.725 51.02L411.405 55.191L414.289 52.604L412.698 47.703L410.833 41.979L408.793 35.704L405.606 40.824Z" fill="url(#paint7_linear)"/>
</g>
<mask id="mask8" mask-type="alpha" maskUnits="userSpaceOnUse" x="410" y="29" width="14" height="19">
<path fill-rule="evenodd" clip-rule="evenodd" d="M410.833 41.979L412.698 47.703L423.889 35.236L420.574 29.551L410.833 41.979Z" fill="white"/>
</mask>
<g mask="url(#mask8)">
<path fill-rule="evenodd" clip-rule="evenodd" d="M410.833 41.979L412.698 47.703L423.889 35.236L420.574 29.551L410.833 41.979Z" fill="url(#paint8_linear)"/>
</g>
<mask id="mask9" mask-type="alpha" maskUnits="userSpaceOnUse" x="395" y="58" width="6" height="4">
<path fill-rule="evenodd" clip-rule="evenodd" d="M395.729 61.248L396.189 61.663C397.545 61.591 398.905 61.544 400.278 61.544V61.544L400.333 61.48L397.773 58.636L395.729 61.248Z" fill="white"/>
</mask>
<g mask="url(#mask9)">
<path fill-rule="evenodd" clip-rule="evenodd" d="M395.729 61.248L396.189 61.663C397.545 61.591 398.905 61.544 400.278 61.544V61.544L400.333 61.48L397.773 58.636L395.729 61.248Z" fill="url(#paint9_linear)"/>
</g>
<mask id="mask10" mask-type="alpha" maskUnits="userSpaceOnUse" x="400" y="45" width="10" height="14">
<path fill-rule="evenodd" clip-rule="evenodd" d="M405.102 49.292L402.417 52.72L400.198 55.548L402.741 58.8L404.789 56.515L407.398 53.607L409.725 51.02L407.689 45.992L405.102 49.292Z" fill="white"/>
</mask>
<g mask="url(#mask10)">
<path fill-rule="evenodd" clip-rule="evenodd" d="M405.102 49.292L402.417 52.72L400.198 55.548L402.741 58.8L404.789 56.515L407.398 53.607L409.725 51.02L407.689 45.992L405.102 49.292Z" fill="url(#paint10_linear)"/>
</g>
<mask id="mask11" mask-type="alpha" maskUnits="userSpaceOnUse" x="404" y="53" width="9" height="10">
<path fill-rule="evenodd" clip-rule="evenodd" d="M407.397 53.608L404.789 56.515L406.633 59.475L408.181 61.951C409.497 62.084 410.805 62.255 412.101 62.452V62.452L411.349 61.043L409.262 57.119L407.398 53.608H407.397Z" fill="white"/>
</mask>
<g mask="url(#mask11)">
<path fill-rule="evenodd" clip-rule="evenodd" d="M407.397 53.608L404.789 56.515L406.633 59.475L408.181 61.951C409.497 62.084 410.805 62.255 412.101 62.452V62.452L411.349 61.043L409.262 57.119L407.398 53.608H407.397Z" fill="url(#paint11_linear)"/>
</g>
<mask id="mask12" mask-type="alpha" maskUnits="userSpaceOnUse" x="383" y="16" width="12" height="20">
<path fill-rule="evenodd" clip-rule="evenodd" d="M383.901 23.076L391.705 35.571L394.025 28.471L387.697 16.576L383.901 23.076Z" fill="white"/>
</mask>
<g mask="url(#mask12)">
<path fill-rule="evenodd" clip-rule="evenodd" d="M383.901 23.076L391.705 35.571L394.025 28.471L387.697 16.576L383.901 23.076Z" fill="url(#paint12_linear)"/>
</g>
<mask id="mask13" mask-type="alpha" maskUnits="userSpaceOnUse" x="394" y="34" width="12" height="19">
<path fill-rule="evenodd" clip-rule="evenodd" d="M397.405 34.824L394.989 40.827L397.614 45.028L400.306 49.34L402.417 52.72L405.101 49.293V49.29L402.906 45.164L400.225 40.132L397.406 34.824H397.405Z" fill="white"/>
</mask>
<g mask="url(#mask13)">
<path fill-rule="evenodd" clip-rule="evenodd" d="M397.405 34.824L394.989 40.827L397.614 45.028L400.306 49.34L402.417 52.72L405.101 49.293V49.29L402.906 45.164L400.225 40.132L397.406 34.824H397.405Z" fill="url(#paint13_linear)"/>
</g>
<mask id="mask14" mask-type="alpha" maskUnits="userSpaceOnUse" x="388" y="60" width="3" height="3">
<path fill-rule="evenodd" clip-rule="evenodd" d="M388.282 62.504C389.093 62.375 389.902 62.255 390.717 62.152V62.152L389.133 60.912L388.282 62.504Z" fill="white"/>
</mask>
<g mask="url(#mask14)">
<path fill-rule="evenodd" clip-rule="evenodd" d="M388.282 62.504C389.093 62.375 389.902 62.255 390.717 62.152V62.152L389.133 60.912L388.282 62.504Z" fill="url(#paint14_linear)"/>
</g>
<mask id="mask15" mask-type="alpha" maskUnits="userSpaceOnUse" x="391" y="45" width="10" height="15">
<path fill-rule="evenodd" clip-rule="evenodd" d="M395.325 49.312L393.109 53.455L391.149 57.127L393.909 59.608L395.849 56.5L398.105 52.871L400.301 49.34L397.614 45.028L395.325 49.312Z" fill="white"/>
</mask>
<g mask="url(#mask15)">
<path fill-rule="evenodd" clip-rule="evenodd" d="M395.325 49.312L393.109 53.455L391.149 57.127L393.909 59.608L395.849 56.5L398.105 52.871L400.301 49.34L397.614 45.028L395.325 49.312Z" fill="url(#paint15_linear)"/>
</g>
<mask id="mask16" mask-type="alpha" maskUnits="userSpaceOnUse" x="400" y="16" width="17" height="30">
<path fill-rule="evenodd" clip-rule="evenodd" d="M406.445 28.479L403.129 34.691L400.225 40.132L402.906 45.164L405.606 40.824L408.793 35.704L416.729 22.96L412.893 16.391L406.445 28.479Z" fill="white"/>
</mask>
<g mask="url(#mask16)">
<path fill-rule="evenodd" clip-rule="evenodd" d="M406.445 28.479L403.129 34.691L400.225 40.132L402.906 45.164L405.606 40.824L408.793 35.704L416.729 22.96L412.893 16.391L406.445 28.479Z" fill="url(#paint16_linear)"/>
</g>
<mask id="mask17" mask-type="alpha" maskUnits="userSpaceOnUse" x="395" y="52" width="10" height="10">
<path fill-rule="evenodd" clip-rule="evenodd" d="M395.849 56.5L397.773 58.636L400.333 61.48L400.393 61.544C401.674 61.544 402.953 61.583 404.217 61.643V61.643L404.654 61.256L402.741 58.8L400.198 55.548L398.105 52.871L395.849 56.5Z" fill="white"/>
</mask>
<g mask="url(#mask17)">
<path fill-rule="evenodd" clip-rule="evenodd" d="M395.849 56.5L397.773 58.636L400.333 61.48L400.393 61.544C401.674 61.544 402.953 61.583 404.217 61.643V61.643L404.654 61.256L402.741 58.8L400.198 55.548L398.105 52.871L395.849 56.5Z" fill="url(#paint17_linear)"/>
</g>
<mask id="mask18" mask-type="alpha" maskUnits="userSpaceOnUse" x="376" y="29" width="20" height="25">
<path fill-rule="evenodd" clip-rule="evenodd" d="M376.765 35.308L387.789 47.551L390.897 51.004L393.109 53.455L395.325 49.312L392.854 46.144L389.609 41.992L380.029 29.723L376.765 35.308Z" fill="white"/>
</mask>
<g mask="url(#mask18)">
<path fill-rule="evenodd" clip-rule="evenodd" d="M376.765 35.308L387.789 47.551L390.897 51.004L393.109 53.455L395.325 49.312L392.854 46.144L389.609 41.992L380.029 29.723L376.765 35.308Z" fill="url(#paint18_linear)"/>
</g>
<mask id="mask19" mask-type="alpha" maskUnits="userSpaceOnUse" x="409" y="40" width="22" height="22">
<path fill-rule="evenodd" clip-rule="evenodd" d="M414.289 52.604L411.405 55.191L409.262 57.119L411.349 61.043L413.185 59.608L415.881 57.495L430.285 46.204L427.237 40.979L414.289 52.604Z" fill="white"/>
</mask>
<g mask="url(#mask19)">
<path fill-rule="evenodd" clip-rule="evenodd" d="M414.289 52.604L411.405 55.191L409.262 57.119L411.349 61.043L413.185 59.608L415.881 57.495L430.285 46.204L427.237 40.979L414.289 52.604Z" fill="url(#paint19_linear)"/>
</g>
<mask id="mask20" mask-type="alpha" maskUnits="userSpaceOnUse" x="404" y="59" width="5" height="3">
<path fill-rule="evenodd" clip-rule="evenodd" d="M404.654 61.256L404.217 61.643C405.549 61.712 406.869 61.815 408.181 61.951V61.951L406.633 59.475L404.654 61.256Z" fill="white"/>
</mask>
<g mask="url(#mask20)">
<path fill-rule="evenodd" clip-rule="evenodd" d="M404.654 61.256L404.217 61.643C405.549 61.712 406.869 61.815 408.181 61.951V61.951L406.633 59.475L404.654 61.256Z" fill="url(#paint20_linear)"/>
</g>
<mask id="mask21" mask-type="alpha" maskUnits="userSpaceOnUse" x="389" y="19" width="12" height="28">
<path fill-rule="evenodd" clip-rule="evenodd" d="M394.025 28.471L391.705 35.571L389.609 41.992L392.854 46.144L394.989 40.827L397.405 34.823L400.289 27.651L396.977 19.448L394.025 28.471Z" fill="white"/>
</mask>
<g mask="url(#mask21)">
<path fill-rule="evenodd" clip-rule="evenodd" d="M394.025 28.471L391.705 35.571L389.609 41.992L392.854 46.144L394.989 40.827L397.405 34.823L400.289 27.651L396.977 19.448L394.025 28.471Z" fill="url(#paint21_linear)"/>
</g>
<mask id="mask22" mask-type="alpha" maskUnits="userSpaceOnUse" x="383" y="47" width="8" height="17">
<path fill-rule="evenodd" clip-rule="evenodd" d="M387.789 47.552L386.137 52.612L384.585 57.36L383.178 61.661V61.664L385.353 63.023C385.609 62.972 385.87 62.915 386.13 62.864V62.864L387.445 59.596L389.157 55.332L390.897 51.004L387.79 47.552H387.789Z" fill="white"/>
</mask>
<g mask="url(#mask22)">
<path fill-rule="evenodd" clip-rule="evenodd" d="M387.789 47.552L386.137 52.612L384.585 57.36L383.178 61.661V61.664L385.353 63.023C385.609 62.972 385.87 62.915 386.13 62.864V62.864L387.445 59.596L389.157 55.332L390.897 51.004L387.79 47.552H387.789Z" fill="url(#paint22_linear)"/>
</g>
<mask id="mask23" mask-type="alpha" maskUnits="userSpaceOnUse" x="400" y="0" width="9" height="20">
<path fill-rule="evenodd" clip-rule="evenodd" d="M400.249 9.427L403.541 19.556L408.109 8.195L403.33 0L400.249 9.427Z" fill="white"/>
</mask>
<g mask="url(#mask23)">
<path fill-rule="evenodd" clip-rule="evenodd" d="M400.249 9.427L403.541 19.556L408.109 8.195L403.33 0L400.249 9.427Z" fill="url(#paint23_linear)"/>
</g>
<mask id="mask24" mask-type="alpha" maskUnits="userSpaceOnUse" x="370" y="41" width="17" height="17">
<path fill-rule="evenodd" clip-rule="evenodd" d="M370.377 46.26L384.585 57.36L386.137 52.612L373.373 41.12L370.377 46.26Z" fill="white"/>
</mask>
<g mask="url(#mask24)">
<path fill-rule="evenodd" clip-rule="evenodd" d="M370.377 46.26L384.585 57.36L386.137 52.612L373.373 41.12L370.377 46.26Z" fill="url(#paint24_linear)"/>
</g>
<mask id="mask25" mask-type="alpha" maskUnits="userSpaceOnUse" x="387" y="55" width="10" height="8">
<path fill-rule="evenodd" clip-rule="evenodd" d="M387.445 59.596L389.133 60.912L390.717 62.152C392.525 61.928 394.349 61.763 396.189 61.663V61.663L395.729 61.248L393.909 59.608L391.149 57.127L389.157 55.332L387.445 59.596Z" fill="white"/>
</mask>
<g mask="url(#mask25)">
<path fill-rule="evenodd" clip-rule="evenodd" d="M387.445 59.596L389.133 60.912L390.717 62.152C392.525 61.928 394.349 61.763 396.189 61.663V61.663L395.729 61.248L393.909 59.608L391.149 57.127L389.157 55.332L387.445 59.596Z" fill="url(#paint25_linear)"/>
</g>
<mask id="mask26" mask-type="alpha" maskUnits="userSpaceOnUse" x="364" y="51" width="22" height="14">
<path fill-rule="evenodd" clip-rule="evenodd" d="M364.278 56.716L379.017 64.559C381.093 63.959 383.206 63.448 385.353 63.023V63.023L383.177 61.663L367.205 51.691L364.278 56.716Z" fill="white"/>
</mask>
<g mask="url(#mask26)">
<path fill-rule="evenodd" clip-rule="evenodd" d="M364.278 56.716L379.017 64.559C381.093 63.959 383.206 63.448 385.353 63.023V63.023L383.177 61.663L367.205 51.691L364.278 56.716Z" fill="url(#paint26_linear)"/>
</g>
<path fill-rule="evenodd" clip-rule="evenodd" d="M37.72 13.2112H47.324V79.4832H37.72V75.7312C33.716 78.8352 28.716 80.4832 23.412 80.4832C10.308 80.4832 0 69.8312 0 56.5232C0 43.3192 10.108 32.5152 23.464 32.5152C28.716 32.5152 33.668 34.1632 37.72 37.2152V13.2112ZM37.62 64.0272V48.9712C35.064 44.5672 30.268 41.5192 24.56 41.5192C16.36 41.5192 9.508 48.5192 9.508 56.5232C9.508 64.4792 16.36 71.4792 24.56 71.4792C30.268 71.4792 35.064 68.4312 37.62 64.0272V64.0272Z" fill="#2E2E7D"/>
<path fill-rule="evenodd" clip-rule="evenodd" d="M104.887 61.0768H67.8229C69.8749 67.9288 76.5229 71.7288 83.8269 71.7288C87.7309 71.7288 91.8829 70.4288 94.8869 68.7808L99.3349 76.4328C94.8309 79.1848 89.5829 80.4848 83.5269 80.4848C69.2709 80.4848 57.3149 71.4808 57.3149 56.4728C57.3149 43.0688 67.3229 32.5128 81.2749 32.5128C94.9349 32.5128 105.287 43.1168 105.287 56.4728C105.287 58.0728 105.139 59.6248 104.887 61.0768M67.6229 52.5728H94.9349C93.5349 46.3208 88.6309 41.2688 81.2749 41.2688C73.5749 41.2688 68.9709 46.3208 67.6229 52.5728" fill="#2E2E7D"/>
<path fill-rule="evenodd" clip-rule="evenodd" d="M114.077 79.484H123.585V12.212H114.077V79.484Z" fill="#2E2E7D"/>
<path fill-rule="evenodd" clip-rule="evenodd" d="M169.303 75.2824C166.903 77.3824 162.799 80.4864 156.143 80.4864C144.739 80.4864 138.635 71.3824 138.635 61.0784V42.2664H130.983V33.5144H138.635V12.2104H148.143V33.5144H164.399V42.2664H148.143V61.0784C148.143 67.1784 151.143 71.2304 156.547 71.2304C159.899 71.2304 162.047 69.7784 163.495 68.4304L169.303 75.2824Z" fill="#2E2E7D"/>
<path fill-rule="evenodd" clip-rule="evenodd" d="M220.365 61.0768H183.297C185.349 67.9288 192.001 71.7288 199.305 71.7288C203.209 71.7288 207.361 70.4288 210.361 68.7808L214.813 76.4328C210.309 79.1848 205.061 80.4848 199.005 80.4848C184.749 80.4848 172.793 71.4808 172.793 56.4728C172.793 43.0688 182.801 32.5128 196.753 32.5128C210.409 32.5128 220.765 43.1168 220.765 56.4728C220.765 58.0728 220.617 59.6248 220.365 61.0768M183.101 52.5728H210.409C209.009 46.3208 204.109 41.2688 196.753 41.2688C189.053 41.2688 184.449 46.3208 183.101 52.5728" fill="#2E2E7D"/>
<path fill-rule="evenodd" clip-rule="evenodd" d="M238.711 38.3164C243.063 34.8644 248.515 32.7124 254.219 32.5124V42.2684C247.215 42.6684 241.611 45.7204 239.111 50.1724V79.4844H229.611V56.4724H229.555C229.555 55.9764 229.555 55.4724 229.611 55.0244V33.5124H238.711V38.3164Z" fill="#2E2E7D"/>
<path fill-rule="evenodd" clip-rule="evenodd" d="M271.368 38.3164C275.72 34.8644 281.176 32.7124 286.876 32.5124V42.2684C279.872 42.6684 274.268 45.7204 271.768 50.1724V79.4844H262.268V56.4724H262.216C262.216 55.9764 262.216 55.4724 262.268 55.0244V33.5124H271.368V38.3164Z" fill="#2E2E7D"/>
<path fill-rule="evenodd" clip-rule="evenodd" d="M330.592 33.514H340.196V79.486H330.592V75.734C326.588 78.834 321.588 80.486 316.284 80.486C303.18 80.486 292.872 69.83 292.872 56.526C292.872 43.318 302.98 32.514 316.332 32.514C321.588 32.514 326.54 34.162 330.592 37.214V33.514ZM330.492 64.026V48.97C327.94 44.57 323.136 41.518 317.432 41.518C309.232 41.518 302.38 48.522 302.38 56.526C302.38 64.478 309.232 71.482 317.432 71.482C323.136 71.482 327.94 68.43 330.492 64.026V64.026Z" fill="#2E2E7D"/>
<defs>
<linearGradient id="paint0_linear" x1="1633.19" y1="250.235" x2="1647.25" y2="232.036" gradientUnits="userSpaceOnUse">
<stop stop-color="#543A97"/>
<stop offset="1" stop-color="#4067B1"/>
</linearGradient>
<linearGradient id="paint1_linear" x1="1641.05" y1="253.584" x2="1652.1" y2="239.126" gradientUnits="userSpaceOnUse">
<stop stop-color="#4067B1"/>
<stop offset="1" stop-color="#00B0C6"/>
</linearGradient>
<linearGradient id="paint2_linear" x1="1651.74" y1="265.62" x2="1671.73" y2="256.889" gradientUnits="userSpaceOnUse">
<stop stop-color="#4067B1"/>
<stop offset="1" stop-color="#00B0C6"/>
</linearGradient>
<linearGradient id="paint3_linear" x1="1558.61" y1="260.821" x2="1579.6" y2="270.648" gradientUnits="userSpaceOnUse">
<stop stop-color="#00B29C"/>
<stop offset="1" stop-color="#4067B1"/>
</linearGradient>
<linearGradient id="paint4_linear" x1="1571.27" y1="247" x2="1582.58" y2="259.768" gradientUnits="userSpaceOnUse">
<stop stop-color="#00B29C"/>
<stop offset="1" stop-color="#4067B1"/>
</linearGradient>
<linearGradient id="paint5_linear" x1="1628.56" y1="231.166" x2="1596.17" y2="215.972" gradientUnits="userSpaceOnUse">
<stop stop-color="#00B29C"/>
<stop offset="1" stop-color="#65C18E"/>
</linearGradient>
<linearGradient id="paint6_linear" x1="1639.8" y1="254.062" x2="1639.8" y2="202.901" gradientUnits="userSpaceOnUse">
<stop stop-color="#00B29C"/>
<stop offset="1" stop-color="#65C18E"/>
</linearGradient>
<linearGradient id="paint7_linear" x1="1623.07" y1="254.061" x2="1623.07" y2="202.9" gradientUnits="userSpaceOnUse">
<stop stop-color="#00B29C"/>
<stop offset="1" stop-color="#65C18E"/>
</linearGradient>
<linearGradient id="paint8_linear" x1="1617.1" y1="243.349" x2="1639.26" y2="229.877" gradientUnits="userSpaceOnUse">
<stop stop-color="#543A97"/>
<stop offset="1" stop-color="#7056A4"/>
</linearGradient>
<linearGradient id="paint9_linear" x1="1608.7" y1="246.926" x2="1640.9" y2="246.926" gradientUnits="userSpaceOnUse">
<stop stop-color="#543A97"/>
<stop offset="1" stop-color="#7056A4"/>
</linearGradient>
<linearGradient id="paint10_linear" x1="1608.7" y1="243.931" x2="1640.9" y2="243.931" gradientUnits="userSpaceOnUse">
<stop stop-color="#543A97"/>
<stop offset="1" stop-color="#7056A4"/>
</linearGradient>
<linearGradient id="paint11_linear" x1="1629.53" y1="252.299" x2="1629.53" y2="206.907" gradientUnits="userSpaceOnUse">
<stop stop-color="#00B29C"/>
<stop offset="1" stop-color="#65C18E"/>
</linearGradient>
<linearGradient id="paint12_linear" x1="1620.9" y1="225.938" x2="1587.51" y2="209.459" gradientUnits="userSpaceOnUse">
<stop stop-color="#00B29C"/>
<stop offset="1" stop-color="#65C18E"/>
</linearGradient>
<linearGradient id="paint13_linear" x1="1612.7" y1="252.302" x2="1612.7" y2="206.91" gradientUnits="userSpaceOnUse">
<stop stop-color="#00B29C"/>
<stop offset="1" stop-color="#65C18E"/>
</linearGradient>
<linearGradient id="paint14_linear" x1="1599.38" y1="248.162" x2="1627.82" y2="248.162" gradientUnits="userSpaceOnUse">
<stop stop-color="#543A97"/>
<stop offset="1" stop-color="#7056A4"/>
</linearGradient>
<linearGradient id="paint15_linear" x1="1599.38" y1="243.866" x2="1627.82" y2="243.866" gradientUnits="userSpaceOnUse">
<stop stop-color="#543A97"/>
<stop offset="1" stop-color="#7056A4"/>
</linearGradient>
<linearGradient id="paint16_linear" x1="1603.65" y1="243.764" x2="1623.24" y2="233.159" gradientUnits="userSpaceOnUse">
<stop stop-color="#543A97"/>
<stop offset="1" stop-color="#7056A4"/>
</linearGradient>
<linearGradient id="paint17_linear" x1="1608.63" y1="245.544" x2="1618.18" y2="228.887" gradientUnits="userSpaceOnUse">
<stop stop-color="#00B29C"/>
<stop offset="1" stop-color="#65C18E"/>
</linearGradient>
<linearGradient id="paint18_linear" x1="1607.61" y1="239.895" x2="1592.54" y2="228.928" gradientUnits="userSpaceOnUse">
<stop stop-color="#00B29C"/>
<stop offset="1" stop-color="#65C18E"/>
</linearGradient>
<linearGradient id="paint19_linear" x1="1621.48" y1="254.999" x2="1647.5" y2="231.632" gradientUnits="userSpaceOnUse">
<stop stop-color="#543A97"/>
<stop offset="1" stop-color="#4067B1"/>
</linearGradient>
<linearGradient id="paint20_linear" x1="1634.81" y1="253.981" x2="1649.32" y2="216.803" gradientUnits="userSpaceOnUse">
<stop stop-color="#543A97"/>
<stop offset="1" stop-color="#4067B1"/>
</linearGradient>
<linearGradient id="paint21_linear" x1="1603.57" y1="249.609" x2="1603.57" y2="201.24" gradientUnits="userSpaceOnUse">
<stop stop-color="#543A97"/>
<stop offset="1" stop-color="#7056A4"/>
</linearGradient>
<linearGradient id="paint22_linear" x1="1598.82" y1="249.61" x2="1598.82" y2="201.241" gradientUnits="userSpaceOnUse">
<stop stop-color="#543A97"/>
<stop offset="1" stop-color="#7056A4"/>
</linearGradient>
<linearGradient id="paint23_linear" x1="1595.72" y1="256.732" x2="1623.03" y2="244.281" gradientUnits="userSpaceOnUse">
<stop stop-color="#543A97"/>
<stop offset="1" stop-color="#7056A4"/>
</linearGradient>
<linearGradient id="paint24_linear" x1="1599.83" y1="233.958" x2="1607.08" y2="239.711" gradientUnits="userSpaceOnUse">
<stop stop-color="#50BD93"/>
<stop offset="1" stop-color="#00A39D"/>
</linearGradient>
<linearGradient id="paint25_linear" x1="1588.27" y1="233.715" x2="1600.92" y2="254.507" gradientUnits="userSpaceOnUse">
<stop stop-color="#50BD93"/>
<stop offset="1" stop-color="#00A39D"/>
</linearGradient>
<linearGradient id="paint26_linear" x1="1586.48" y1="239.223" x2="1591.9" y2="248.174" gradientUnits="userSpaceOnUse">
<stop stop-color="#50BD93"/>
<stop offset="1" stop-color="#00A39D"/>
</linearGradient>
</defs>
</svg>
